<?xml version="1.0" encoding="UTF-8"?>
<svg width="91px" height="18px" viewBox="0 0 91 18" version="1.1" xmlns="http://www.w3.org/2000/svg" xmlns:xlink="http://www.w3.org/1999/xlink">
    <g fill="#FFFFFF" fill-rule="evenodd">
        <path d="M28.2929423,18.0001533 C23.3300614,18.0001533 19.2926259,13.9625808 19.2926259,9.00011091 C19.2926259,4.03750399 23.3300614,0 28.2929423,0 C33.2555492,0 37.2929847,4.03750399 37.2933272,9.00011091 C37.2933272,13.9625808 33.2555492,18.0001533 28.2929423,18.0001533 Z M28.2929423,3.30872428 C31.4310997,3.30872428 33.9843289,5.86195355 33.9843289,9.00011091 C33.9843289,12.1384738 31.4310997,14.6910865 28.2929423,14.6910865 C25.1548534,14.6910865 22.6015557,12.1384738 22.6015557,9.00011091 C22.6015557,5.86195355 25.1548534,3.30872428 28.2929423,3.30872428 Z M86.4227136,11.3687991 L90.9988392,18.0001533 L87.1825241,18.0001533 L80.3882751,8.73549243 L83.6532959,8.73549243 C85.1492842,8.73549243 86.36668,7.51837071 86.36668,6.02210835 C86.36668,4.52577749 85.1495582,3.30872428 83.6532959,3.30872428 L78.5486184,3.30872428 L78.5483444,18.0001533 L75.2396201,18.0001533 L75.2396201,3.29447612 L73.0999985,0.0142481605 L73.0999985,0 L83.6530219,0 C86.9740078,0 89.6754042,2.70132794 89.6754042,6.02210835 C89.6754042,8.34496953 88.3534763,10.3647148 86.4227136,11.3687991 Z M13.3227151,11.3687991 L17.8988407,18.0001533 L14.0825257,18.0001533 L7.28827662,8.73549243 L10.5532974,8.73549243 C12.0492173,8.73549243 13.2666815,7.51837071 13.2666815,6.02210835 C13.2666815,4.52577749 12.0495598,3.30872428 10.5532974,3.30872428 L5.44868839,3.30872428 L5.44834589,18.0001533 L2.13962161,18.0001533 L2.13962161,3.29447612 L0,0.0142481605 L0,0 L10.5530234,0 C13.8740093,0 16.5754058,2.70132794 16.5754058,6.02210835 C16.5754058,8.34496953 15.2534779,10.3647148 13.3227151,11.3687991 Z M71.3444444,18.0001533 L58.8708648,18.0001533 L58.8705223,0.0237012671 L71.3444444,0.0237012671 L71.3444444,3.30427173 L62.1510243,3.30427173 L62.1512983,7.37184756 L69.4336153,7.37184756 L69.4336153,10.6520755 L62.1512983,10.6520755 L62.1510243,14.7198569 L71.3444444,14.7198569 L71.3444444,18.0001533 Z M52.9034886,0 L56.4238803,0 L49.4213889,18.0001533 L44.8496473,18.0001533 L37.8471559,0 L41.3675476,0 L47.1355181,14.8269236 L52.9034886,0 Z" id="Combined-Shape"></path>
    </g>
</svg>
