<svg width="24" height="24" viewBox="0 0 24 24" xmlns="http://www.w3.org/2000/svg" xmlns:xlink="http://www.w3.org/1999/xlink" fill="#FFF" fill-rule="nonzero">
    <path d="M13,1 C13.2652165,1 13.5195704,1.10535684 13.7071068,1.29289322 L20.7071068,8.29289322 C20.8946432,8.4804296 21,8.73478351 21,9 L21,20 C21,21.6568542 19.6568542,23 18,23 L6,23 C4.34314575,23 3,21.6568542 3,20 L3,4 C3,2.34314575 4.34314575,1 6,1 L13,1 Z M12.5857864,3 L6,3 C5.44771525,3 5,3.44771525 5,4 L5,20 C5,20.5522847 5.44771525,21 6,21 L18,21 C18.5522847,21 19,20.5522847 19,20 L19,9.41421356 L12.5857864,3 Z M14,8 L20,8 C20.5522847,8 21,8.44771525 21,9 C21,9.55228475 20.5522847,10 20,10 L13,10 C12.4477153,10 12,9.55228475 12,9 L12,2 C12,1.44771525 12.4477153,1 13,1 C13.5522847,1 14,1.44771525 14,2 L14,8 Z" id="path-1"></path>
</svg>
